<?xml version="1.0" standalone="no"?><!DOCTYPE svg PUBLIC "-//W3C//DTD SVG 1.1//EN" "http://www.w3.org/Graphics/SVG/1.1/DTD/svg11.dtd"><svg t="1594564799721" class="icon" viewBox="0 0 1024 1024" version="1.1" xmlns="http://www.w3.org/2000/svg" p-id="3388" xmlns:xlink="http://www.w3.org/1999/xlink" width="32" height="32"><defs><style type="text/css"></style></defs><path d="M213.333333 42.666667l682.666667 0 0 938.666667-682.666667 0q-52.992 0-90.496-37.504t-37.504-90.496l0-682.666667q0-52.992 37.504-90.496t90.496-37.504zM810.666667 896l0-85.333333-597.333333 0q-17.664 0-30.165333 12.501333t-12.501333 30.165333 12.501333 30.165333 30.165333 12.501333l597.333333 0zM810.666667 725.333333l0-597.333333-597.333333 0q-17.664 0-30.165333 12.501333t-12.501333 30.165333l0 562.005333q20.992-7.338667 42.666667-7.338667l597.333333 0z" p-id="3389"></path></svg>